# xmcd
#
# Track frame offsets:
#	150
#	13615
#	29405
#	40645
#	53432
#	67382
#	80663
#	93447
#	107025
#	120695
#	133592
#	145872
#
# Disc length: 2154 seconds
#
# Revision: 1
# Processed by: cddbd v1.5.2PL0 Copyright (c) Steve Scherf et al.
# Submitted via: audiograbber 1.83.01
#
DISCID=a108680c
DTITLE=Die Edlseer - Weihnachtsstimmung
DYEAR=1999
DGENRE=Weihnachtsmusik
TTITLE0=Mein Schatz soll wie ein Engel sein
TTITLE1=Weihnacht im Himmel
TTITLE2=Schlttenfahrt mit Pferden
TTITLE3=Liebes Christkind, flieg zu mir nieder
TTITLE4=Die Weihnacht meiner Kinderzeit
TTITLE5=Z'sammenhalten
TTITLE6=Weihnachtszeuber in den Bergen
TTITLE7=Schweizer Walzer (Instrumental)
TTITLE8=Alle Menschen brauchen Liebe
TTITLE9=S' Christkindl
TTITLE10=Bergfrieden
TTITLE11=Aber Heidschi Bumbeidschi
EXTD=
EXTT0=
EXTT1=
EXTT2=
EXTT3=
EXTT4=
EXTT5=
EXTT6=
EXTT7=
EXTT8=
EXTT9=
EXTT10=
EXTT11=
PLAYORDER=
